# xmcd
#
# Track frame offsets:
#	150
#	12616
#	24977
#	34476
#	65076
#	87160
#	100317
#	109977
#	128606
#	137894
#	159050
#	172910
#	183509
#	196376
#	212990
#	226364
#	251261
#	266783
#
# Disc length: 3866
#
# Revision: 1
# Processed by: cddbd v1.5.1PL0 Copyright (c) Steve Scherf et al.
# Submitted via: CDex 1.50Beta7
# Normalized: r0:TDELIM( - )
#
DISCID=fc0f1812
DTITLE=Best of Blues - The Golden Collection CD1
DYEAR=2000
DGENRE=Blues
TTITLE0=Muddy Water - Walkin' Thru The Park
TTITLE1=John Lee Hooker - I'm In The Mood
TTITLE2=Canned Heat - Big Road Blues
TTITLE3=Jimmy Witherspoon - Ain't Nobody's Bussiness
TTITLE4=John Mayall - A Big Man
TTITLE5=Elmore Clapton and Jimmy Page - Tribute To Elmore
TTITLE6=Santana - With A Little Help From My Friends
TTITLE7=Johnny Winter - Roadrunner
TTITLE8=Dave Brubeck - Blues In The Dark
TTITLE9=Dave Brubeck - Blues In The Dark
TTITLE10=Lightnin' Hopkins - Mojo Hand
TTITLE11=John Lee Hooker - Dusty Road
TTITLE12=Muddy Waters - 40 Days And  40 Nights
TTITLE13=Townes Van Zandt - Pancho And Lefty
TTITLE14=Tony Joe White - You Got Me Running
TTITLE15=Ike and Tina Turner - All I Can Do Is Cry
TTITLE16=Big Joe Williams - Nobody Knows You When Your Down And Out
TTITLE17=B.B.King - How Blue Can You Get
EXTD=YEAR: 2000
EXTT0=
EXTT1=
EXTT2=
EXTT3=
EXTT4=
EXTT5=
EXTT6=
EXTT7=
EXTT8=
EXTT9=
EXTT10=
EXTT11=
EXTT12=
EXTT13=
EXTT14=
EXTT15=
EXTT16=
EXTT17=
PLAYORDER=
